<svg width="980" height="760" viewBox="0 0 980 760" fill="none" xmlns="http://www.w3.org/2000/svg">
  <defs>
    <style>
      .panel { fill:none; stroke:#2a2f38; stroke-width:2.5; }
      .titlebox { fill:#0d1117; stroke:#39d353; stroke-width:1.6; }
      .title { fill:#9be9a8; font:700 18px 'Segoe UI', Arial, sans-serif; letter-spacing:0.04em; }
      .caption { fill:#8b949e; font:600 12px 'Segoe UI', Arial, sans-serif; letter-spacing:0.12em; }
      .notechip { fill:#0d1117; stroke:#2a2f38; stroke-width:1.2; }
      .note { fill:#c9d1d9; font:600 10px 'Segoe UI', Arial, sans-serif; }
      .subnote { fill:#8b949e; font:500 10px 'Segoe UI', Arial, sans-serif; }
      .mint { fill:#66e0be; stroke:#151515; stroke-width:2; }
      .violet { fill:#c8a8ff; stroke:#151515; stroke-width:2; }
      .ghost-mint { fill:#66e0be; stroke:#151515; stroke-width:1.5; opacity:0.78; }
      .ghost-violet { fill:#c8a8ff; stroke:#151515; stroke-width:1.5; opacity:0.78; }
      .mesh { stroke:#2f363d; stroke-width:2; stroke-linecap:round; stroke-linejoin:round; }
      .pathline { stroke:#d2f7db; stroke-width:3.2; stroke-linecap:round; stroke-linejoin:round; }
      .spark { stroke:#d2f7db; stroke-width:2; stroke-linecap:round; }
    </style>
  </defs>

  <rect width="980" height="760" fill="none"/>
  <text x="490" y="28" text-anchor="middle" class="caption">REPOSITORY SIGNAL -&gt; STRUCTURE -&gt; EXPERIENCE -&gt; STRATEGY -&gt; INTUITION</text>

  <rect x="24" y="52" width="286" height="286" rx="18" class="panel"/>
  <rect x="346" y="52" width="286" height="286" rx="18" class="panel"/>
  <rect x="668" y="52" width="286" height="286" rx="18" class="panel"/>
  <rect x="184" y="382" width="286" height="286" rx="18" class="panel"/>
  <rect x="510" y="382" width="286" height="286" rx="18" class="panel"/>

  <rect x="87" y="66" width="160" height="34" rx="12" class="titlebox"/>
  <rect x="409" y="66" width="160" height="34" rx="12" class="titlebox"/>
  <rect x="731" y="66" width="160" height="34" rx="12" class="titlebox"/>
  <rect x="247" y="396" width="160" height="34" rx="12" class="titlebox"/>
  <rect x="573" y="396" width="160" height="34" rx="12" class="titlebox"/>

  <text x="167" y="88" text-anchor="middle" class="title">Information</text>
  <text x="489" y="88" text-anchor="middle" class="title">Knowledge</text>
  <text x="811" y="88" text-anchor="middle" class="title">Experience</text>
  <text x="327" y="418" text-anchor="middle" class="title">Strategy</text>
  <text x="653" y="418" text-anchor="middle" class="title">Intuition</text>

  <!-- Information -->
  <circle cx="58" cy="158" r="10" class="mint"/>
  <circle cx="98" cy="122" r="8" class="violet"/>
  <circle cx="140" cy="168" r="9" class="mint"/>
  <circle cx="77" cy="225" r="9" class="violet"/>
  <circle cx="130" cy="244" r="8" class="ghost-mint"/>
  <circle cx="189" cy="132" r="8" class="violet"/>
  <circle cx="219" cy="176" r="10" class="mint"/>
  <circle cx="254" cy="130" r="9" class="ghost-mint"/>
  <circle cx="241" cy="228" r="9" class="violet"/>
  <circle cx="97" cy="290" r="7" class="ghost-mint"/>
  <circle cx="182" cy="295" r="10" class="mint"/>
  <circle cx="254" cy="286" r="9" class="violet"/>
  <rect x="40" y="248" width="144" height="28" rx="9" class="notechip"/>
  <text x="112" y="266" text-anchor="middle" class="note">5c0uT-library_manager</text>
  <rect x="152" y="200" width="136" height="28" rx="9" class="notechip"/>
  <text x="220" y="218" text-anchor="middle" class="note">MFC_Applications</text>
  <rect x="142" y="266" width="146" height="28" rx="9" class="notechip"/>
  <text x="215" y="284" text-anchor="middle" class="note">Used_Kompas_api</text>
  <text x="167" y="320" text-anchor="middle" class="subnote">scattered utilities, desktop tooling, raw problem space</text>

  <!-- Knowledge -->
  <circle cx="374" cy="156" r="10" class="mint"/>
  <circle cx="414" cy="138" r="8" class="violet"/>
  <circle cx="456" cy="118" r="8" class="violet"/>
  <circle cx="480" cy="164" r="8" class="mint"/>
  <circle cx="520" cy="190" r="9" class="violet"/>
  <circle cx="560" cy="150" r="9" class="mint"/>
  <circle cx="404" cy="214" r="9" class="mint"/>
  <circle cx="458" cy="228" r="8" class="violet"/>
  <circle cx="525" cy="244" r="9" class="ghost-mint"/>
  <circle cx="377" cy="262" r="9" class="ghost-violet"/>
  <circle cx="432" cy="282" r="8" class="ghost-mint"/>
  <circle cx="500" cy="286" r="8" class="ghost-violet"/>
  <circle cx="558" cy="282" r="8" class="ghost-mint"/>
  <path d="M374 156 L414 138 L404 214 L458 228 L525 244" class="mesh"/>
  <path d="M456 118 L456 228 L520 190" class="mesh"/>
  <path d="M404 214 L377 262 L432 282 L500 286" class="mesh"/>
  <path d="M480 164 L480 286 L558 282" class="mesh"/>
  <path d="M560 150 L520 150 L520 190" class="mesh"/>
  <rect x="356" y="194" width="92" height="28" rx="9" class="notechip"/>
  <text x="402" y="212" text-anchor="middle" class="note">OpenCV_PD</text>
  <rect x="388" y="228" width="154" height="28" rx="9" class="notechip"/>
  <text x="465" y="246" text-anchor="middle" class="note">maze-anomaly-detector</text>
  <rect x="466" y="258" width="106" height="28" rx="9" class="notechip"/>
  <text x="519" y="276" text-anchor="middle" class="note">ddashbords</text>
  <rect x="370" y="292" width="92" height="28" rx="9" class="notechip"/>
  <text x="416" y="310" text-anchor="middle" class="note">Liza_ass</text>
  <text x="489" y="320" text-anchor="middle" class="subnote">pattern recognition, CV, dashboards, assistant systems</text>

  <!-- Experience -->
  <circle cx="696" cy="164" r="10" class="mint"/>
  <circle cx="734" cy="140" r="8" class="violet"/>
  <circle cx="768" cy="118" r="8" class="ghost-violet"/>
  <circle cx="792" cy="166" r="8" class="mint"/>
  <circle cx="840" cy="212" r="10" class="mint"/>
  <circle cx="882" cy="158" r="10" class="mint"/>
  <circle cx="732" cy="218" r="9" class="violet"/>
  <circle cx="785" cy="226" r="8" class="mint"/>
  <circle cx="838" cy="258" r="9" class="ghost-mint"/>
  <circle cx="744" cy="284" r="8" class="ghost-violet"/>
  <circle cx="810" cy="292" r="9" class="ghost-mint"/>
  <circle cx="874" cy="294" r="10" class="ghost-violet"/>
  <path d="M732 218 L785 226 L838 258 L810 292" class="mesh"/>
  <path d="M744 284 L744 218" class="mesh"/>
  <path d="M785 226 L785 292" class="mesh"/>
  <path d="M838 258 L838 212 L882 158" class="pathline"/>
  <path d="M696 164 L732 218 L785 226" class="mesh"/>
  <path d="M792 166 L840 212" class="mesh"/>
  <line x1="893" y1="147" x2="905" y2="136" class="spark"/>
  <line x1="900" y1="159" x2="914" y2="159" class="spark"/>
  <line x1="895" y1="172" x2="907" y2="181" class="spark"/>
  <rect x="688" y="194" width="82" height="28" rx="9" class="notechip"/>
  <text x="729" y="212" text-anchor="middle" class="note">LizaML</text>
  <rect x="706" y="232" width="184" height="28" rx="9" class="notechip"/>
  <text x="798" y="250" text-anchor="middle" class="note">Physics_Impact_simulator_code</text>
  <rect x="730" y="272" width="82" height="28" rx="9" class="notechip"/>
  <text x="771" y="290" text-anchor="middle" class="note">Interton</text>
  <rect x="774" y="298" width="132" height="28" rx="9" class="notechip"/>
  <text x="840" y="316" text-anchor="middle" class="note">SpartialDB_core</text>
  <text x="811" y="320" text-anchor="middle" class="subnote">larger systems, simulation, spatial compute, language design</text>

  <!-- Strategy -->
  <circle cx="225" cy="470" r="10" class="violet"/>
  <circle cx="258" cy="456" r="8" class="ghost-mint"/>
  <circle cx="284" cy="500" r="9" class="mint"/>
  <circle cx="332" cy="490" r="10" class="mint"/>
  <circle cx="380" cy="446" r="9" class="ghost-violet"/>
  <circle cx="414" cy="468" r="8" class="mint"/>
  <circle cx="430" cy="528" r="9" class="ghost-mint"/>
  <circle cx="368" cy="560" r="8" class="ghost-violet"/>
  <circle cx="307" cy="552" r="8" class="ghost-mint"/>
  <circle cx="250" cy="540" r="8" class="ghost-violet"/>
  <path d="M225 470 L284 500 L332 490 L380 446 L414 468" class="pathline"/>
  <path d="M284 500 L307 552 L368 560 L430 528" class="mesh"/>
  <path d="M258 456 L332 490" class="mesh"/>
  <path d="M332 490 L332 552" class="mesh"/>
  <path d="M380 446 L380 560" class="mesh"/>
  <rect x="272" y="518" width="110" height="28" rx="9" class="notechip"/>
  <text x="327" y="536" text-anchor="middle" class="note">5c0uT</text>
  <text x="327" y="610" text-anchor="middle" class="subnote">integration layer, repo orchestration, unnamed branches converging</text>

  <!-- Intuition -->
  <circle cx="550" cy="584" r="10" class="violet"/>
  <circle cx="586" cy="530" r="9" class="ghost-mint"/>
  <circle cx="635" cy="518" r="9" class="mint"/>
  <circle cx="683" cy="462" r="9" class="ghost-mint"/>
  <circle cx="742" cy="430" r="10" class="mint"/>
  <circle cx="560" cy="470" r="8" class="ghost-violet"/>
  <circle cx="614" cy="452" r="8" class="ghost-mint"/>
  <circle cx="702" cy="540" r="8" class="ghost-violet"/>
  <circle cx="760" cy="560" r="8" class="ghost-mint"/>
  <path d="M550 584 C575 548 592 530 635 518 C672 507 703 468 742 430" class="pathline"/>
  <path d="M560 470 L614 452 L683 462" class="mesh"/>
  <path d="M635 518 L702 540 L760 560" class="mesh"/>
  <path d="M683 462 L702 540" class="mesh"/>
  <line x1="754" y1="418" x2="767" y2="406" class="spark"/>
  <line x1="758" y1="431" x2="773" y2="431" class="spark"/>
  <line x1="753" y1="444" x2="766" y2="454" class="spark"/>
  <text x="653" y="610" text-anchor="middle" class="subnote">compressed judgment, cleaner paths, fewer named surfaces</text>
</svg>
